<?xml version="1.0" standalone="no"?>
<!DOCTYPE svg PUBLIC "-//W3C//DTD SVG 20010904//EN"
 "http://www.w3.org/TR/2001/REC-SVG-20010904/DTD/svg10.dtd">
<svg version="1.0" xmlns="http://www.w3.org/2000/svg"
 width="260.000000pt" height="260.000000pt" viewBox="0 0 260.000000 260.000000"
 preserveAspectRatio="xMidYMid meet">
<metadata>
Created by potrace 1.14, written by Peter Selinger 2001-2017
</metadata>
<g transform="translate(0.000000,260.000000) scale(0.100000,-0.100000)"
fill="#000000" stroke="none">
<path d="M1250 2580 c0 -18 -7 -20 -70 -20 -68 0 -70 -1 -70 -25 0 -23 -4 -25
-45 -25 -38 0 -45 -3 -45 -20 0 -17 -7 -20 -50 -20 -47 0 -50 -2 -50 -25 0
-23 -4 -25 -45 -25 -41 0 -45 -2 -45 -25 0 -23 -4 -25 -45 -25 -38 0 -45 -3
-45 -20 0 -17 -7 -20 -45 -20 -41 0 -45 -2 -45 -25 0 -20 -5 -25 -25 -25 -20
0 -25 -5 -25 -25 0 -20 -5 -25 -25 -25 -18 0 -25 -5 -25 -20 0 -13 -7 -20 -20
-20 -17 0 -20 -7 -20 -50 0 -47 -2 -50 -25 -50 -23 0 -25 -4 -25 -45 0 -41 -2
-45 -25 -45 -23 0 -25 -4 -25 -45 0 -38 -3 -45 -20 -45 -17 0 -20 -7 -20 -45
0 -41 -2 -45 -25 -45 -23 0 -25 -3 -25 -50 0 -43 -3 -50 -20 -50 -20 0 -20 -7
-20 -370 0 -363 0 -370 20 -370 15 0 20 7 20 25 0 20 5 25 25 25 18 0 25 5 25
20 0 13 7 20 20 20 15 0 20 7 20 25 0 20 5 25 25 25 20 0 25 5 25 25 0 20 5
25 25 25 23 0 25 4 25 45 0 38 3 45 20 45 17 0 20 7 20 45 0 41 2 45 25 45 23
0 25 4 25 45 0 41 2 45 25 45 23 0 25 3 25 50 0 43 3 50 20 50 13 0 20 7 20
20 0 15 7 20 25 20 20 0 25 5 25 25 0 20 5 25 25 25 20 0 25 5 25 25 0 18 5
25 20 25 13 0 20 7 20 20 0 17 7 20 45 20 41 0 45 2 45 25 0 23 3 25 50 25 47
0 50 2 50 25 0 23 4 25 45 25 38 0 45 3 45 20 0 19 7 20 160 20 153 0 160 -1
160 -20 0 -15 7 -20 25 -20 20 0 25 -5 25 -25 l0 -25 -140 0 -140 0 0 -25 c0
-23 -4 -25 -45 -25 -38 0 -45 -3 -45 -20 0 -15 -7 -20 -25 -20 -20 0 -25 -5
-25 -25 0 -18 -5 -25 -20 -25 -15 0 -20 -7 -20 -25 0 -20 -5 -25 -25 -25 -18
0 -25 -5 -25 -20 0 -15 -7 -20 -25 -20 -20 0 -25 -5 -25 -25 0 -18 -5 -25 -20
-25 -15 0 -20 -7 -20 -25 0 -20 -5 -25 -25 -25 -23 0 -25 -4 -25 -45 0 -38 -3
-45 -20 -45 -17 0 -20 -7 -20 -45 0 -41 -2 -45 -25 -45 l-25 0 0 -140 0 -140
-25 0 -25 0 0 -185 c0 -178 -1 -185 -20 -185 -18 0 -20 -7 -20 -70 0 -68 -1
-70 -25 -70 -24 0 -25 -2 -25 -70 0 -68 -1 -70 -25 -70 -25 0 -25 0 -25 -95
l0 -95 120 0 120 0 0 25 c0 23 4 25 45 25 41 0 45 2 45 25 0 23 4 25 45 25
l45 0 0 -50 0 -50 95 0 c88 0 95 -1 95 -20 0 -19 7 -20 115 -20 l115 0 0 -25
c0 -25 1 -25 90 -25 89 0 90 0 90 -25 l0 -25 140 0 140 0 0 120 0 120 115 0
115 0 0 255 c0 248 -1 255 -20 255 -13 0 -20 7 -20 20 0 17 -7 20 -50 20 -47
0 -50 2 -50 25 0 23 -4 25 -45 25 l-45 0 0 115 0 115 45 0 c38 0 45 -3 45 -20
0 -15 7 -20 25 -20 20 0 25 -5 25 -25 0 -20 5 -25 25 -25 20 0 25 -5 25 -25 0
-18 5 -25 20 -25 13 0 20 -7 20 -20 0 -19 7 -20 120 -20 l120 0 0 115 0 115
-25 0 c-23 0 -25 4 -25 45 0 41 -2 45 -25 45 -23 0 -25 4 -25 45 0 38 -3 45
-20 45 -17 0 -20 7 -20 50 0 47 -2 50 -25 50 -23 0 -25 4 -25 45 0 41 -2 45
-25 45 -23 0 -25 4 -25 45 0 38 -3 45 -20 45 -15 0 -20 7 -20 25 0 20 -5 25
-25 25 -20 0 -25 5 -25 25 0 23 -4 25 -45 25 -38 0 -45 3 -45 20 0 17 -7 20
-45 20 -41 0 -45 2 -45 25 0 20 -5 25 -25 25 -20 0 -25 5 -25 25 0 20 5 25 25
25 18 0 25 5 25 20 0 17 7 20 45 20 41 0 45 2 45 25 0 18 5 25 20 25 13 0 20
7 20 20 0 15 7 20 25 20 23 0 25 3 25 50 0 47 2 50 25 50 23 0 25 4 25 45 0
38 3 45 20 45 17 0 20 7 20 45 0 41 2 45 25 45 23 0 25 3 25 50 0 47 2 50 25
50 23 0 25 4 25 45 0 38 3 45 20 45 19 0 20 7 20 90 l0 90 -485 0 c-478 0
-485 0 -485 -20z m600 -2320 c0 -13 -7 -20 -20 -20 -13 0 -20 7 -20 20 0 13 7
20 20 20 13 0 20 -7 20 -20z"/>
</g>
</svg>
